<?xml version="1.0" standalone="no"?><!DOCTYPE svg PUBLIC "-//W3C//DTD SVG 1.1//EN" "http://www.w3.org/Graphics/SVG/1.1/DTD/svg11.dtd"><svg t="1662557560560" class="icon" viewBox="0 0 1024 1024" version="1.1" xmlns="http://www.w3.org/2000/svg" p-id="3615" xmlns:xlink="http://www.w3.org/1999/xlink" width="200" height="200"><path d="M857.4 498.1h-256c-20.2 0-36.7 16.5-36.7 36.7v452.5c0 20.2 16.5 36.7 36.7 36.7h159.5v-96.9c0-8.5 6.9-15.4 15.4-15.4h47.8c8.5 0 15.4 6.9 15.4 15.4v96.9h17.8c20.2 0 36.7-16.5 36.7-36.7V534.8c0.1-20.2-16.4-36.7-36.6-36.7zM704 941.9c0 8.2-6.6 14.9-14.8 14.9h-48.9c-8.1 0-14.9-6.7-14.9-14.9v-18.8c0-8.2 6.7-14.9 14.9-14.9h48.9c8.2 0 14.8 6.6 14.8 14.9v18.8z m0-86.9c0 8.2-6.6 14.9-14.8 14.9h-48.9c-8.1 0-14.9-6.7-14.9-14.9v-18.9c0-8.2 6.7-14.9 14.9-14.9h48.9c8.2 0 14.8 6.7 14.8 14.9V855z m0-86.9c0 8.1-6.6 14.8-14.8 14.8h-48.9c-8.1 0-14.9-6.7-14.9-14.8v-18.9c0-8.2 6.7-14.9 14.9-14.9h48.9c8.2 0 14.8 6.7 14.8 14.9v18.9z m0-87c0 8.2-6.6 14.9-14.8 14.9h-48.9c-8.1 0-14.9-6.7-14.9-14.9v-18.9c0-8.1 6.7-14.9 14.9-14.9h48.9c8.2 0 14.8 6.7 14.8 14.9v18.9z m0-86.9c0 8.1-6.6 14.9-14.8 14.9h-48.9c-8.1 0-14.9-6.7-14.9-14.9v-18.9c0-8.1 6.7-14.8 14.9-14.8h48.9c8.2 0 14.8 6.7 14.8 14.8v18.9zM833.2 855c0 8.2-6.7 14.9-14.8 14.9h-49c-8.1 0-14.8-6.7-14.8-14.9v-18.9c0-8.2 6.7-14.9 14.8-14.9h49c8 0 14.8 6.7 14.8 14.9V855z m0-86.9c0 8.1-6.7 14.8-14.8 14.8h-49c-8.1 0-14.8-6.7-14.8-14.8v-18.9c0-8.2 6.7-14.9 14.8-14.9h49c8 0 14.8 6.7 14.8 14.9v18.9z m0-87c0 8.2-6.7 14.9-14.8 14.9h-49c-8.1 0-14.8-6.7-14.8-14.9v-18.9c0-8.1 6.7-14.9 14.8-14.9h49c8 0 14.8 6.7 14.8 14.9v18.9z m0-86.9c0 8.1-6.7 14.9-14.8 14.9h-49c-8.1 0-14.8-6.7-14.8-14.9v-18.9c0-8.1 6.7-14.8 14.8-14.8h49c8 0 14.8 6.7 14.8 14.8v18.9z" fill="#54A8B9" p-id="3616"></path><path d="M452.4 301.4h-0.6c-0.3-25.6-19.1-46.8-43.6-51v-9c0-29.3-24-53.3-53.3-53.3h-16.3l-11-166c0-12.2-4.1-22-9.4-22-5.1 0-9.4 9.9-9.4 22l-11 166h-16.2c-29.3 0-53.3 24-53.3 53.3v9c-24.5 4.2-43.2 25.4-43.5 51h-0.6c-29.3 0-53.3 24-53.3 53.3v628.1c0 20.2 16.5 36.7 36.7 36.7h67.1c0.8 0 1.6 0.2 2.5 0.2h34.4V893c0-3.3 2.7-5.9 5.9-5.9h81.9c3.3 0 5.9 2.7 5.9 5.9v126.8h33.8c0.8 0 1.6-0.2 2.5-0.2H469c20.2 0 36.7-16.6 36.7-36.7V354.7c0-29.3-24-53.3-53.3-53.3z m-51.7 503.7H234.4c-12.4 0-22.5-9.3-22.5-20.8 0-11.4 10.1-20.8 22.5-20.8h166.3c12.5 0 22.6 9.4 22.6 20.8s-10.2 20.8-22.6 20.8z m0-101.6H234.4c-12.4 0-22.5-9.3-22.5-20.8s10.1-20.8 22.5-20.8h166.3c12.5 0 22.6 9.3 22.6 20.8 0 11.4-10.2 20.8-22.6 20.8z m0-101.6H234.4c-12.4 0-22.5-9.3-22.5-20.8s10.1-20.8 22.5-20.8h166.3c12.5 0 22.6 9.3 22.6 20.8 0 11.4-10.2 20.8-22.6 20.8z m0-101.7H234.4c-12.4 0-22.5-9.3-22.5-20.8s10.1-20.8 22.5-20.8h166.3c12.5 0 22.6 9.4 22.6 20.8 0 11.5-10.2 20.8-22.6 20.8z m0-101.6H234.4c-12.4 0-22.5-9.3-22.5-20.8 0-11.4 10.1-20.8 22.5-20.8h166.3c12.5 0 22.6 9.4 22.6 20.8 0 11.5-10.2 20.8-22.6 20.8z" fill="#626262" p-id="3617"></path></svg>