<?xml version="1.0" standalone="no"?><!DOCTYPE svg PUBLIC "-//W3C//DTD SVG 1.1//EN" "http://www.w3.org/Graphics/SVG/1.1/DTD/svg11.dtd"><svg t="1662558142754" class="icon" viewBox="0 0 1024 1024" version="1.1" xmlns="http://www.w3.org/2000/svg" p-id="2729" xmlns:xlink="http://www.w3.org/1999/xlink" width="200" height="200"><path d="M694.57 350.94v-77.16H577.23v158.14h59.69l1.99 5.28h164.58v404.24h-12l6.68 17.7h87.61v-508.2H694.57z" fill="#FFE100" p-id="2730"></path><path d="M812.33 873.3H124.06V150.7h163.62v28.32h-135.3v665.96H784V451.36H577.23v-28.33h235.1V873.3z" p-id="2731"></path><path d="M563.07 693.39h28.32v165.75h-28.32zM591.39 537.02h-28.32v-358h-133.7V150.7h162.02v386.32zM138.22 522.86h123.39v28.32H138.22z" p-id="2732"></path><path d="M515.54 522.86h123.38v28.32H515.54zM899.94 873.3H798.16v-28.32h73.46V365.1H680.41v-77.16H577.23v-28.32h131.5v77.15h191.21V873.3z" p-id="2733"></path></svg>