<?xml version="1.0" standalone="no"?><!DOCTYPE svg PUBLIC "-//W3C//DTD SVG 1.1//EN" "http://www.w3.org/Graphics/SVG/1.1/DTD/svg11.dtd"><svg t="1662558938155" class="icon" viewBox="0 0 1024 1024" version="1.1" xmlns="http://www.w3.org/2000/svg" p-id="3062" xmlns:xlink="http://www.w3.org/1999/xlink" width="200" height="200"><path d="M400.7 13h224C588.6 4.9 551.1 0.6 512.6 0.6 474.2 0.7 436.7 5 400.7 13z" fill="#00D995" p-id="3063"></path><path d="M342.4 29.7l340.7 0.2c-19-6.7-38.4-12.3-58.4-16.8h-224c-19.9 4.3-39.4 9.9-58.3 16.6z" fill="#01D996" p-id="3064"></path><path d="M300.9 46.4l423.6 0.1c-13.5-6.1-27.4-11.7-41.4-16.8l-340.7-0.1c-14.1 5.1-28 10.7-41.5 16.8z" fill="#01D997" p-id="3065"></path><path d="M267.4 63.2l490.4 0.1c-10.9-5.9-22-11.5-33.5-16.8l-423.6-0.1c-11.2 5.3-22.3 10.8-33.3 16.8z" fill="#01D898" p-id="3066"></path><path d="M239.1 79.9l547.2 0.1c-9.3-5.8-18.7-11.4-28.3-16.8l-490.4-0.1c-9.8 5.4-19.2 11-28.5 16.8z" fill="#01D899" p-id="3067"></path><path d="M214.3 96.7l596.8 0.1C803 91 794.8 85.4 786.3 80l-547.2-0.1c-8.4 5.4-16.7 11-24.8 16.8z" fill="#01D89A" p-id="3068"></path><path d="M192.3 113.4l640.7 0.1c-7.2-5.8-14.5-11.3-22-16.8l-596.8-0.1c-7.3 5.4-14.7 11-21.9 16.8z" fill="#01D79B" p-id="3069"></path><path d="M172.5 130.1l680.3 0.1c-6.4-5.7-13-11.3-19.8-16.8l-640.7-0.1c-6.6 5.5-13.3 11-19.8 16.8z" fill="#01D79C" p-id="3070"></path><path d="M154.7 146.8l716.1 0.1c-5.8-5.7-11.8-11.3-17.9-16.8l-680.3-0.1c-6.1 5.5-12.1 11.1-17.9 16.8z" fill="#02D79D" p-id="3071"></path><path d="M138.4 163.6l748.7 0.1c-5.4-5.7-10.7-11.3-16.3-16.8l-716.2-0.1c-5.5 5.5-11 11.1-16.2 16.8z" fill="#02D79E" p-id="3072"></path><path d="M123.4 180.3l778.5 0.1c-4.8-5.7-9.8-11.3-14.8-16.8H138.4c-5.2 5.5-10.1 11-15 16.7z" fill="#02D69F" p-id="3073"></path><path d="M109.7 197.1l805.9 0.1c-4.5-5.7-9-11.3-13.7-16.8l-778.5-0.1c-4.7 5.5-9.2 11.1-13.7 16.8z" fill="#02D6A0" p-id="3074"></path><path d="M97.1 213.7l831 0.1c-4.1-5.7-8.2-11.3-12.6-16.8l-805.9-0.1c-4.1 5.7-8.4 11.3-12.5 16.8z" fill="#02D6A1" p-id="3075"></path><path d="M85.6 230.5l854.1 0.1c-3.8-5.7-7.7-11.2-11.5-16.8l-831-0.1c-3.9 5.5-7.8 11.1-11.6 16.8z" fill="#02D5A2" p-id="3076"></path><path d="M75 247.2l875.3 0.2c-3.4-5.7-7-11.2-10.6-16.8l-854.1-0.1c-3.7 5.5-7.2 11.1-10.6 16.7z" fill="#02D5A3" p-id="3077"></path><path d="M65.3 264l894.8 0.2c-3.2-5.6-6.4-11.2-9.7-16.8l-875.3-0.2c-3.4 5.6-6.6 11.1-9.8 16.8z" fill="#02D5A4" p-id="3078"></path><path d="M56.4 280.7l912.6 0.2c-2.9-5.6-5.8-11.2-8.9-16.8l-894.8-0.2c-3.1 5.6-6.1 11.2-8.9 16.8z" fill="#03D4A5" p-id="3079"></path><path d="M48.3 297.5l928.8 0.2c-2.6-5.6-5.4-11.2-8.1-16.8l-912.6-0.2c-2.8 5.6-5.5 11.2-8.1 16.8z" fill="#03D4A6" p-id="3080"></path><path d="M40.8 314.1l943.6 0.2c-2.4-5.6-4.8-11.2-7.4-16.8l-928.8-0.2c-2.5 5.7-5 11.2-7.4 16.8z" fill="#03D4A7" p-id="3081"></path><path d="M34.2 330.9l957 0.2c-2.2-5.6-4.3-11.2-6.6-16.8L41 314.1c-2.5 5.6-4.7 11.2-6.8 16.8z" fill="#03D4A8" p-id="3082"></path><path d="M28.1 347.7l969 0.2c-1.9-5.6-3.9-11.2-6.1-16.8l-957-0.2c-2 5.5-3.9 11.1-5.9 16.8z" fill="#03D3A9" p-id="3083"></path><path d="M22.8 364.4l979.7 0.2c-1.7-5.6-3.4-11.2-5.4-16.8l-969-0.2c-1.8 5.6-3.6 11.2-5.3 16.8z" fill="#03D3AA" p-id="3084"></path><path d="M18.1 381.2l989.1 0.2c-1.5-5.6-3.1-11.2-4.7-16.8l-979.7-0.2c-1.6 5.6-3.2 11.1-4.7 16.8z" fill="#03D3AB" p-id="3085"></path><path d="M14 397.9l997.3 0.2c-1.3-5.6-2.6-11.2-4.1-16.8l-989.1-0.2c-1.5 5.6-2.9 11.2-4.1 16.8z" fill="#04D2AC" p-id="3086"></path><path d="M10.4 414.7l1004.4 0.2c-1.1-5.6-2.3-11.2-3.5-16.8L14 397.9c-1.3 5.6-2.5 11.2-3.6 16.8z" fill="#04D2AD" p-id="3087"></path><path d="M7.5 431.3l1010.3 0.2c-0.9-5.6-1.8-11.2-3-16.8l-1004.4-0.2c-1.1 5.6-2 11.2-2.9 16.8z" fill="#04D2AE" p-id="3088"></path><path d="M5.1 448.1l1015 0.2c-0.7-5.6-1.5-11.2-2.4-16.8L7.4 431.3c-0.8 5.6-1.6 11.2-2.3 16.8z" fill="#04D1AF" p-id="3089"></path><path d="M3.3 464.8l1018.7 0.2c-0.6-5.6-1.1-11.2-1.8-16.8L5.1 448c-0.7 5.6-1.3 11.2-1.8 16.8z" fill="#04D1B0" p-id="3090"></path><path d="M2 481.6l1021.2 0.2c-0.3-5.6-0.8-11.2-1.3-16.7L3.3 464.8c-0.5 5.6-1 11.2-1.3 16.8z" fill="#04D1B1" p-id="3091"></path><path d="M1.3 498.3l1022.6 0.2c-0.1-5.6-0.3-11.2-0.7-16.7L2 481.6c-0.3 5.6-0.6 11.1-0.7 16.7z" fill="#04D1B2" p-id="3092"></path><path d="M1.3 498.3c-0.1 4.5-0.2 9.2-0.2 13.9v2.9l1022.9 0.2v-3.1c0-4.6-0.1-9.1-0.2-13.7" fill="#05D0B3" p-id="3093"></path><path d="M1.5 531.8l1022.2 0.2c0.2-5.6 0.3-11.2 0.3-16.8L1.2 515c0 5.6 0.1 11.2 0.3 16.8z" fill="#05D0B4" p-id="3094"></path><path d="M2.5 548.5l1020.4 0.2c0.3-5.6 0.7-11.2 0.9-16.8L1.5 531.7c0.2 5.7 0.5 11.2 1 16.8z" fill="#05D0B5" p-id="3095"></path><path d="M3.8 565.3l1017.5 0.2c0.6-5.6 1-11.2 1.5-16.8L2.5 548.5c0.3 5.6 0.8 11.2 1.3 16.8z" fill="#05CFB6" p-id="3096"></path><path d="M5.9 582l1013.5 0.2c0.8-5.6 1.4-11.2 2.1-16.8L3.9 565.2c0.5 5.7 1.2 11.3 2 16.8z" fill="#05CFB7" p-id="3097"></path><path d="M8.4 598.8l1008.4 0.2c0.9-5.6 1.8-11.1 2.6-16.8L5.9 582c0.7 5.6 1.6 11.2 2.5 16.8z" fill="#05CFB8" p-id="3098"></path><path d="M11.6 615.4l1002.1 0.2c1.1-5.6 2.2-11.1 3.2-16.8H8.4c1 5.6 2 11.2 3.2 16.6z" fill="#05CEB9" p-id="3099"></path><path d="M15.2 632.2l994.6 0.2c1.4-5.5 2.6-11.1 3.8-16.8l-1002.1-0.2c1.2 5.6 2.5 11.2 3.7 16.8z" fill="#06CEBA" p-id="3100"></path><path d="M19.6 648.9l985.9 0.2c1.5-5.5 3-11.1 4.3-16.8l-994.6-0.2c1.4 5.7 2.9 11.3 4.4 16.8z" fill="#06CEBB" p-id="3101"></path><path d="M24.5 665.7l976.1 0.2c1.7-5.5 3.4-11.1 4.9-16.8l-985.9-0.2c1.6 5.7 3.2 11.2 4.9 16.8z" fill="#06CEBD" p-id="3102"></path><path d="M30.1 682.4l964.9 0.2c1.9-5.5 3.8-11.1 5.6-16.8l-976.1-0.2c1.8 5.7 3.6 11.3 5.6 16.8z" fill="#06CDBE" p-id="3103"></path><path d="M36.4 699.2l952.4 0.2c2.2-5.5 4.2-11.1 6.3-16.8l-964.9-0.2c1.9 5.7 4 11.3 6.2 16.8z" fill="#06CDBF" p-id="3104"></path><path d="M43.3 716l938.6 0.2c2.4-5.5 4.7-11.1 7-16.8l-952.5-0.2c2.1 5.6 4.5 11.2 6.9 16.8z" fill="#06CDC0" p-id="3105"></path><path d="M50.9 732.6l923.3 0.2c2.6-5.5 5.1-11.1 7.7-16.8l-938.7-0.2c2.5 5.7 5.1 11.3 7.7 16.8z" fill="#06CCC1" p-id="3106"></path><path d="M59.3 749.4l906.5 0.2c2.9-5.5 5.7-11.1 8.3-16.8l-923.3-0.2c2.8 5.7 5.7 11.2 8.5 16.8z" fill="#07CCC2" p-id="3107"></path><path d="M68.5 766.1l888.1 0.2c3.2-5.5 6.3-11.1 9.1-16.8l-906.5-0.2c3.1 5.7 6.2 11.3 9.3 16.8z" fill="#07CCC3" p-id="3108"></path><path d="M78.5 782.9l868.1 0.2c3.4-5.5 6.7-11.1 10.1-16.8l-888.1-0.2c3.2 5.7 6.5 11.3 9.9 16.8z" fill="#07CBC4" p-id="3109"></path><path d="M89.5 799.6l846.2 0.2c3.8-5.5 7.4-11.1 11-16.8l-868.2-0.2c3.6 5.7 7.2 11.3 11 16.8z" fill="#07CBC5" p-id="3110"></path><path d="M101.4 816.3l822.5 0.2c4.1-5.5 8-11.1 11.9-16.8l-846.2-0.2c3.7 5.8 7.6 11.4 11.8 16.8z" fill="#07CBC6" p-id="3111"></path><path d="M114.3 833.1l796.5 0.1c4.5-5.5 8.8-11.1 12.9-16.8l-822.5-0.2c4.3 5.9 8.6 11.5 13.1 16.9z" fill="#07CBC7" p-id="3112"></path><path d="M128.3 849.8l768.3 0.1c4.8-5.5 9.5-11.1 14.2-16.8l-796.5-0.1c4.5 5.7 9.2 11.3 14 16.8z" fill="#07CAC8" p-id="3113"></path><path d="M143.7 866.6l737.6 0.1c5.3-5.5 10.4-11.1 15.4-16.8l-768.3-0.1c4.9 5.7 10.1 11.3 15.3 16.8z" fill="#08CAC9" p-id="3114"></path><path d="M160.6 883.3l703.9 0.1c5.7-5.5 11.4-11.1 16.9-16.8H143.7c5.5 5.7 11.1 11.3 16.9 16.7z" fill="#08CACA" p-id="3115"></path><path d="M179.1 900.1l666.8 0.1c6.3-5.5 12.4-11 18.5-16.8l-703.9-0.1c6.1 5.7 12.4 11.3 18.6 16.8z" fill="#08C9CB" p-id="3116"></path><path d="M199.6 916.7l625.8 0.1c7-5.4 13.8-11 20.6-16.8H179.1c6.7 5.8 13.5 11.4 20.5 16.7z" fill="#08C9CC" p-id="3117"></path><path d="M211.5 925.6l602.1 0.1c4-2.9 8-5.9 11.9-8.9l-625.8-0.1c3.8 3.1 7.8 6.1 11.8 8.9zM512.6 1023.8c112.5 0 216.6-36.3 301-97.9l-602.1-0.1c84.5 61.5 188.5 98 301.1 98z" fill="#08C9CC" p-id="3118"></path><path d="M512.2 341.1L302.4 540.7v178.8c0 32.6 26.5 59 59 59H451V642.4c0-33.8 27.4-61.2 61.2-61.2s61.2 27.4 61.2 61.2v136.2H663c32.5 0 59-26.5 59-59V540.3L512.2 341.1z" fill="#FCFFFD" p-id="3119"></path><path d="M775.1 498.4L526.5 253.3c-8-7.9-20.7-7.9-28.7 0L308.5 440.1l-59.1 58.3c-8 7.9-8.1 20.9-0.2 28.9 6.7 6.8 16.8 7.5 24.7 2.9l238.4-226.7 239.9 227.7c2.8 1.3 5.7 2.2 8.7 2.2 5.3 0 10.5-2 14.5-6.1 7.8-8 7.7-20.9-0.3-28.9z" fill="#FCFFFD" p-id="3120"></path><path d="M573.4 778.6H663c31.3 0 57-24.5 58.9-55.4L573.4 748v30.6zM451 778.3v-9.9l-57.6 9.7z" fill="#FFFFFF" p-id="3121"></path><path d="M302.4 608.2v112.5c0.5 28.9 22 52.9 49.8 57.2l41.1 0.2 57.6-9.6v-126c0-33.8 27.4-61.2 61.2-61.2s61.2 27.4 61.2 61.2V748L722 723.1c0.1-1.2 0.1-2.4 0.1-3.6V540.3l-2.1-2-417.6 69.9z" fill="#FFFFFF" p-id="3122"></path><path d="M716.9 535.4l-414.5 69.3v3.5L720 538.4z" fill="#FFFFFF" p-id="3123"></path><path d="M713.8 532.4l-411.4 68.8v3.5l414.5-69.3z" fill="#FCFFFF" p-id="3124"></path><path d="M710.6 529.4l-408.2 68.3v3.5l411.4-68.8z" fill="#FAFFFE" p-id="3125"></path><path d="M707.5 526.5l-405.1 67.7v3.5l408.2-68.3z" fill="#F7FFFE" p-id="3126"></path><path d="M704.3 523.5l-401.9 67.1v3.6l405.1-67.7z" fill="#F5FEFD" p-id="3127"></path><path d="M701.2 520.5l-398.8 66.6v3.5l401.9-67.1z" fill="#F2FEFD" p-id="3128"></path><path d="M698.1 517.5l-395.7 66.1v3.5l398.8-66.6z" fill="#EFFEFC" p-id="3129"></path><path d="M694.9 514.5l-392.5 65.6v3.5l395.7-66.1z" fill="#EDFEFC" p-id="3130"></path><path d="M691.8 511.6l-389.4 65v3.5l392.5-65.6z" fill="#EAFEFB" p-id="3131"></path><path d="M688.6 508.6l-386.2 64.5v3.5l389.4-65z" fill="#E8FEFB" p-id="3132"></path><path d="M685.5 505.6l-383.1 64v3.5l386.2-64.5z" fill="#E5FDFA" p-id="3133"></path><path d="M682.4 502.6l-380 63.5v3.5l383.1-64z" fill="#E2FDFA" p-id="3134"></path><path d="M679.2 499.6l-376.8 63v3.5l380-63.5z" fill="#E0FDF9" p-id="3135"></path><path d="M676.1 496.7l-373.7 62.4v3.5l376.8-63z" fill="#DDFDF9" p-id="3136"></path><path d="M673 493.7l-370.6 61.9v3.5l373.7-62.4z" fill="#DBFDF8" p-id="3137"></path><path d="M669.8 490.7l-367.4 61.4v3.5L673 493.7z" fill="#D8FDF8" p-id="3138"></path><path d="M666.7 487.7l-364.3 60.9v3.5l367.4-61.4z" fill="#D5FCF7" p-id="3139"></path><path d="M663.5 484.8l-361.1 60.3v3.5l364.3-60.9z" fill="#D3FCF7" p-id="3140"></path><path d="M660.4 481.8l-358 59.8v3.5l361.1-60.3z" fill="#D0FCF6" p-id="3141"></path><path d="M657.3 478.8l-351.6 58.7-3.3 3.2v0.9l358-59.8z" fill="#CEFCF6" p-id="3142"></path><path d="M654.1 475.8l-343.9 57.5-4.5 4.2 351.6-58.7z" fill="#CBFCF5" p-id="3143"></path><path d="M651 472.8L314.7 529l-4.5 4.3 343.9-57.5z" fill="#C8FCF5" p-id="3144"></path><path d="M647.9 469.9l-328.8 54.9-4.4 4.2L651 472.8z" fill="#C6FBF4" p-id="3145"></path><path d="M644.7 466.9l-321.1 53.6-4.5 4.3 328.8-54.9z" fill="#C3FBF4" p-id="3146"></path><path d="M641.6 463.9l-313.5 52.4-4.5 4.2 321.1-53.6z" fill="#C0FBF3" p-id="3147"></path><path d="M638.4 460.9L332.5 512l-4.4 4.3 313.5-52.4z" fill="#BEFBF3" p-id="3148"></path><path d="M635.3 457.9L337 507.8l-4.5 4.2 305.9-51.1z" fill="#BBFBF2" p-id="3149"></path><path d="M632.2 455l-290.7 48.5-4.5 4.3 298.3-49.9z" fill="#B9FBF2" p-id="3150"></path><path d="M629 452l-283.1 47.3-4.4 4.2L632.2 455z" fill="#B6FBF1" p-id="3151"></path><path d="M625.9 449l-275.5 46-4.5 4.3L629 452z" fill="#B3FAF1" p-id="3152"></path><path d="M622.8 446l-267.9 44.8-4.5 4.2 275.5-46z" fill="#B1FAF0" p-id="3153"></path><path d="M619.6 443l-260.3 43.5-4.4 4.3L622.8 446z" fill="#AEFAF0" p-id="3154"></path><path d="M616.5 440.1l-252.7 42.2-4.5 4.2L619.6 443z" fill="#ACFAEF" p-id="3155"></path><path d="M613.3 437.1l-245 40.9-4.5 4.3 252.7-42.2z" fill="#A9FAEF" p-id="3156"></path><path d="M610.2 434.1l-237.5 39.7-4.4 4.2 245-40.9z" fill="#A6FAEE" p-id="3157"></path><path d="M607.1 431.1l-229.9 38.4-4.5 4.3 237.5-39.7z" fill="#A4F9EE" p-id="3158"></path><path d="M603.9 428.2l-222.2 37.1-4.5 4.2 229.9-38.4z" fill="#A1F9ED" p-id="3159"></path><path d="M600.8 425.2L386.2 461l-4.5 4.3 222.2-37.1z" fill="#9FF9ED" p-id="3160"></path><path d="M597.7 422.2l-207.1 34.6-4.4 4.2 214.6-35.8z" fill="#9CF9EC" p-id="3161"></path><path d="M594.5 419.2l-199.4 33.3-4.5 4.3 207.1-34.6z" fill="#99F9EC" p-id="3162"></path><path d="M591.4 416.2l-191.8 32.1-4.5 4.2 199.4-33.3z" fill="#97F9EB" p-id="3163"></path><path d="M588.2 413.3L404 444l-4.4 4.3 191.8-32.1z" fill="#94F8EB" p-id="3164"></path><path d="M585.1 410.3l-176.6 29.5-4.5 4.2 184.2-30.7z" fill="#92F8EA" p-id="3165"></path><path d="M582 407.3l-169 28.2-4.5 4.3 176.6-29.5z" fill="#8FF8EA" p-id="3166"></path><path d="M578.8 404.3l-161.4 27-4.4 4.2 169-28.2z" fill="#8CF8E9" p-id="3167"></path><path d="M575.7 401.3L421.9 427l-4.5 4.3 161.4-27z" fill="#8AF8E9" p-id="3168"></path><path d="M572.5 398.4l-146.1 24.4-4.5 4.2 153.8-25.7z" fill="#87F8E8" p-id="3169"></path><path d="M569.4 395.4l-138.6 23.1-4.4 4.3 146.1-24.4z" fill="#84F7E8" p-id="3170"></path><path d="M566.3 392.4l-131 21.9-4.5 4.2 138.6-23.1z" fill="#82F7E7" p-id="3171"></path><path d="M563.1 389.4L439.8 410l-4.5 4.3 131-21.9z" fill="#7FF7E7" p-id="3172"></path><path d="M560 386.5l-115.8 19.3-4.4 4.2 123.3-20.6z" fill="#7DF7E6" p-id="3173"></path><path d="M556.9 383.5l-108.2 18-4.5 4.3L560 386.5z" fill="#7AF7E6" p-id="3174"></path><path d="M553.7 380.5l-100.5 16.8-4.5 4.2 108.2-18z" fill="#77F7E5" p-id="3175"></path><path d="M550.6 377.5l-93 15.5-4.4 4.3 100.5-16.8z" fill="#75F6E5" p-id="3176"></path><path d="M547.4 374.5l-85.3 14.3-4.5 4.2 93-15.5z" fill="#72F6E4" p-id="3177"></path><path d="M544.3 371.6l-77.7 12.9-4.5 4.3 85.3-14.3z" fill="#70F6E4" p-id="3178"></path><path d="M541.2 368.6l-70.1 11.7-4.5 4.2 77.7-12.9z" fill="#6DF6E3" p-id="3179"></path><path d="M512.6 341.5h-0.7l-40.8 38.8 70.1-11.7z" fill="#6DF6E3" p-id="3180"></path></svg>