<?xml version="1.0" standalone="no"?><!DOCTYPE svg PUBLIC "-//W3C//DTD SVG 1.1//EN" "http://www.w3.org/Graphics/SVG/1.1/DTD/svg11.dtd"><svg t="1649313817852" class="icon" viewBox="0 0 1024 1024" version="1.1" xmlns="http://www.w3.org/2000/svg" p-id="8239" xmlns:xlink="http://www.w3.org/1999/xlink" width="200" height="200"><defs><style type="text/css"></style></defs><path d="M864 64c53.02 0 96 42.98 96 96v576c0 53.02-42.98 96-96 96h-32v32c0 53.02-42.98 96-96 96H160c-53.02 0-96-42.98-96-96V288c0-53.02 42.98-96 96-96h32v-32c0-53.02 42.98-96 96-96h576zM736.53 256H160c-17.496 0-31.713 14.042-32 31.47V864c0 17.496 14.042 31.713 31.47 32H736c17.496 0 31.713-14.042 32-31.47V288c0-17.496-14.042-31.713-31.47-32z m128-128H288c-17.496 0-31.713 14.042-32 31.47V192h480c53.02 0 96 42.98 96 96v480h32c17.496 0 31.713-14.042 32-31.47V160c0-17.496-14.042-31.713-31.47-32z" fill="#000000" p-id="8240"></path></svg>