<?xml version="1.0" standalone="no"?><!DOCTYPE svg PUBLIC "-//W3C//DTD SVG 1.1//EN" "http://www.w3.org/Graphics/SVG/1.1/DTD/svg11.dtd"><svg t="1663830234369" class="icon" viewBox="0 0 1024 1024" version="1.1" xmlns="http://www.w3.org/2000/svg" p-id="12036" xmlns:xlink="http://www.w3.org/1999/xlink" width="200" height="200"><path d="M679.6 958.1H127.8c-34.8 0-63-28.2-63-63V126.7c0-34.8 28.2-63 63-63h551.8c34.8 0 63 28.2 63 63v768.4c0 34.7-28.2 63-63 63z" fill="#01AA7A" p-id="12037"></path><path d="M772.8 576.7H264.4c-36.3 0-65.8-29.5-65.8-65.8s29.5-65.8 65.8-65.8h508.4c36.3 0 65.8 29.5 65.8 65.8s-29.5 65.8-65.8 65.8z" fill="#FFD301" p-id="12038"></path><path d="M933.9 460L699.7 231.5c-25.1-24.5-65.7-24.5-90.8 0-25.1 24.5-25.1 64.1 0 88.6l195.6 190.8-195.6 190.8c-25.1 24.5-25.1 64.1 0 88.6s65.7 24.5 90.8 0l234.2-228.5c14.3-13.9 20.4-32.7 18.4-50.9 2-18.2-4.1-37-18.4-50.9z" fill="#EA590A" p-id="12039"></path></svg>