<?xml version="1.0" standalone="no"?><!DOCTYPE svg PUBLIC "-//W3C//DTD SVG 1.1//EN" "http://www.w3.org/Graphics/SVG/1.1/DTD/svg11.dtd"><svg t="1649648893426" class="icon" viewBox="0 0 1024 1024" version="1.1" xmlns="http://www.w3.org/2000/svg" p-id="8077" xmlns:xlink="http://www.w3.org/1999/xlink" width="200" height="200"><defs><style type="text/css"></style></defs><path d="M516.8 580c-130.4 2.8-257.6-39.6-360-120.4-5.2-4.8-8.4-11.6-9.2-18.8-0.4-7.2 2-14.4 6.8-19.6 10-11.2 27.2-12.4 38.4-2.4 166.4 143.2 481.6 143.2 646 0 11.2-10 28.4-8.8 38.4 2.8 10 11.2 8.8 28.4-2.8 38.4-101.2 80-228 122.8-357.6 120z m-98.4 118.4h-4.8c-7.6-0.4-14.8-4-19.6-10-4.4-6-5.6-13.6-4-20.8l18-106c2.8-14.4 16.4-24 30.8-22 7.2 1.2 13.6 5.2 18 11.2 4 6 5.6 13.6 4.8 20.8l-18 105.6c-3.2 11.6-13.2 20.8-25.2 21.2z m404-53.6c-7.2 0-14-2.8-19.2-8l-88.8-89.6c-7.6-6.8-11.2-16.8-8.4-26.8 2.4-10 10.4-17.6 20.4-19.6 10-2 20 1.2 26.8 8.8l88.8 89.6c10.4 10.4 10.4 27.2 0 38-5.6 4.8-12.8 7.6-19.6 7.6z m-611.2 0c-6.8-0.4-12.8-3.2-18-7.6-5.2-4.8-8-11.6-8-18.8 0-7.2 2.8-14 8-19.2l88.8-89.6c6-8.8 17.2-13.2 27.6-10.8 10.4 2.4 18.8 10.4 20.8 20.8s-2.4 21.6-11.2 27.2l-88.8 89.6c-5.2 5.6-12.4 8.8-19.2 8.4z m405.2 53.6c-12.8 0-24-9.2-26.4-22l-18-105.6c-3.2-10-0.8-20.8 7.2-28 7.6-7.6 18.8-9.6 28.4-5.6 9.6 3.6 16.4 12.8 16.8 23.2l18 106c1.2 6.8-0.4 14-4.4 20s-10.4 9.6-17.6 11.2H616v0.8z m0 0" fill="#C9CACA" p-id="8078"></path></svg>