<?xml version="1.0" standalone="no"?><!DOCTYPE svg PUBLIC "-//W3C//DTD SVG 1.1//EN" "http://www.w3.org/Graphics/SVG/1.1/DTD/svg11.dtd"><svg t="1649648886697" class="icon" viewBox="0 0 1024 1024" version="1.1" xmlns="http://www.w3.org/2000/svg" p-id="7941" xmlns:xlink="http://www.w3.org/1999/xlink" width="200" height="200"><defs><style type="text/css"></style></defs><path d="M515.2 710c-62 0-119.6-10.4-171.6-30.8-42-16.4-80-39.2-113.2-68-57.2-49.2-80.8-98.8-81.6-101.2-1.6-3.6-2.4-7.2-2.4-11.2v-0.8c0-4 0.8-7.6 2.4-11.2 0.8-2 24.4-52 81.6-101.2 33.2-28.8 71.6-51.6 113.2-68 52-20.4 109.6-30.8 171.6-30.8s119.6 10.4 171.6 30.8c42 16.4 80 39.2 113.2 68 57.2 49.2 80.8 98.8 81.6 101.2 1.6 3.6 2.4 7.2 2.4 11.2v0.8c0 4-0.8 7.6-2.4 11.2-0.8 2-24.4 52-81.6 101.2-33.2 28.8-71.6 51.6-113.2 68-52 20.8-109.6 30.8-171.6 30.8z m-312.4-210.8" fill="#C9CACA" p-id="7942"></path><path d="M516 646c-80.4 0-146-65.6-146-146s65.6-146 146-146 146 65.6 146 146-65.6 146-146 146z m0-228c-45.2 0-82 36.8-82 82s36.8 82 82 82 82-36.8 82-82-36.8-82-82-82z" fill="#FFFFFF" p-id="7943"></path></svg>