<?xml version="1.0" standalone="no"?><!DOCTYPE svg PUBLIC "-//W3C//DTD SVG 1.1//EN" "http://www.w3.org/Graphics/SVG/1.1/DTD/svg11.dtd"><svg t="1649650443181" class="icon" viewBox="0 0 1024 1024" version="1.1" xmlns="http://www.w3.org/2000/svg" p-id="10675" xmlns:xlink="http://www.w3.org/1999/xlink" width="200" height="200"><defs><style type="text/css"></style></defs><path d="M825.2928 392.5504A288.3584 288.3584 0 0 0 536.32 102.4 288.3584 288.3584 0 0 0 247.296 392.5504c0 106.3424 57.7536 203.0592 147.6608 251.392-122.0096 48.384-215.0912 154.7776-240.7936 290.1504-3.2256 16.128 6.4 35.4816 25.7024 38.7072h6.4a31.2832 31.2832 0 0 0 32.1024-25.8048c28.928-151.5008 160.5632-261.12 314.6752-264.3456h6.4c157.3376 0 285.7984-132.1472 285.7984-290.0992z m-513.7408 0c0-125.7472 99.5328-225.6896 224.768-225.6896 125.184 0 224.768 99.9424 224.768 225.6896 0 122.4704-99.584 222.4128-221.5936 225.6384h-9.6256c-122.0096-6.4512-218.3168-106.3936-218.3168-225.6384z m577.9456 415.8464h-64.2048v-64.512c0-19.3024-12.8512-32.2048-32.1024-32.2048-19.3024 0-32.1536 12.9024-32.1536 32.256v64.4608H696.832c-19.2512 0-32.1024 12.9024-32.1024 32.256 0 19.3024 12.8 32.256 32.1024 32.256h64.2048v64.4096c0 19.3536 12.8512 32.256 32.1536 32.256 19.2512 0 32.1024-12.9024 32.1024-32.256v-64.4608h64.2048c19.2512 0 32.1024-12.9024 32.1024-32.256 0-19.3024-12.8-32.256-32.1024-32.256z" p-id="10676"></path></svg>