<?xml version="1.0" standalone="no"?><!DOCTYPE svg PUBLIC "-//W3C//DTD SVG 1.1//EN" "http://www.w3.org/Graphics/SVG/1.1/DTD/svg11.dtd"><svg t="1663070187469" class="icon" viewBox="0 0 1027 1024" version="1.1" xmlns="http://www.w3.org/2000/svg" p-id="1775" xmlns:xlink="http://www.w3.org/1999/xlink" width="200.5859375" height="200"><path d="M409.381746 785.47979c89.250209 0 161.819594-72.569384 161.819594-161.819594l-48.327624 0c0 62.592068-50.899901 116.60988-113.491969 116.60988-62.592068 0-113.491969-54.017812-113.491969-116.60988l-48.327624 0C247.562153 712.910406 320.209485 785.47979 409.381746 785.47979z" p-id="1776"></path><path d="M316.390043 568.551115c20.812058 1.091269 39.129786-16.057243 38.116465-36.8693-0.935373-17.850042-16.602877-33.517546-34.452919-34.452919-20.812058-1.091269-37.882622 17.304407-36.8693 38.116465C284.119662 553.195402 298.617949 567.69369 316.390043 568.551115z" p-id="1777"></path><path d="M499.567329 568.551115c20.890005 1.091269 39.285682-16.057243 38.194413-36.947248-0.935373-17.850042-16.680825-33.673441-34.530867-34.530867-20.890005-1.091269-38.038517 17.304407-36.947248 38.194413C467.219 553.117455 481.717287 567.69369 499.567329 568.551115z" p-id="1778"></path><path d="M664.660729 509.856436c-13.952653-33.049859-33.985233-62.747964-59.474157-88.15894-25.488924-25.488924-55.109081-45.443556-88.15894-59.474157-34.219076-14.498287-70.542742-21.825379-108.035625-21.825379-37.414935 0-73.816549 7.327091-108.035625 21.825379-33.049859 13.952653-62.747964 33.985233-88.15894 59.474157S167.353886 476.806577 153.401233 509.856436c-14.498287 34.219076-21.825379 70.542742-21.825379 108.035625 0 37.414935 7.327091 73.816549 21.825379 108.035625 13.952653 33.049859 33.985233 62.747964 59.474157 88.15894 25.488924 25.488924 55.109081 45.443556 88.15894 59.474157 34.219076 14.498287 70.542742 21.825379 108.035625 21.825379 37.414935 0 73.816549-7.327091 108.035625-21.825379 27.04788-11.458324 51.913222-26.969932 73.972444-46.223034l-34.297024-34.297024c-41.312324 34.920606-92.991703 53.939865-147.711045 53.939865-61.189008 0-118.714471-23.852021-162.053437-67.11304-43.261018-43.261018-67.11304-100.786481-67.11304-162.053437s23.852021-118.714471 67.11304-162.053437c43.261018-43.261018 100.786481-67.11304 162.053437-67.11304s118.714471 23.852021 162.053437 67.11304c43.261018 43.261018 67.11304 100.786481 67.11304 162.053437 0 42.949227-11.770115 84.027708-33.673441 119.727792l34.920606 34.920606c9.82142-14.654183 18.317729-30.243739 25.255081-46.690721 14.498287-34.219076 21.825379-70.542742 21.825379-108.035625C686.486108 580.399178 679.159017 544.075512 664.660729 509.856436z" p-id="1779"></path></svg>