<?xml version="1.0" standalone="no"?><!DOCTYPE svg PUBLIC "-//W3C//DTD SVG 1.1//EN" "http://www.w3.org/Graphics/SVG/1.1/DTD/svg11.dtd"><svg t="1662558051587" class="icon" viewBox="0 0 1024 1024" version="1.1" xmlns="http://www.w3.org/2000/svg" p-id="3965" xmlns:xlink="http://www.w3.org/1999/xlink" width="200" height="200"><path d="M878.4 944.9H147.6c-38.4 0-69.6-31.2-69.6-69.6V145.6c0-39 31.8-70.8 70.8-70.8H878c38.6 0 70 31.4 70 70v730.4c0 38.4-31.2 69.7-69.6 69.7zM148.7 114.8c-17 0-30.8 13.8-30.8 30.8v729.6c0 16.3 13.3 29.6 29.6 29.6h730.8c16.3 0 29.6-13.3 29.6-29.6V144.8c0-16.5-13.5-30-30-30H148.7z" fill="#4C6070" p-id="3966"></path><path d="M170 172.5h689V295H170z" fill="#FFBD5C" p-id="3967"></path><path d="M857.4 310.6H176c-14.6 0-26.5-11.9-26.5-26.5v-110c0-14.6 11.9-26.5 26.5-26.5h681.4c14.6 0 26.5 11.9 26.5 26.5v110c0 14.6-11.9 26.5-26.5 26.5zM176 172.5c-0.8 0-1.5 0.7-1.5 1.5v110c0 0.8 0.7 1.5 1.5 1.5h681.4c0.8 0 1.5-0.7 1.5-1.5V174c0-0.8-0.7-1.5-1.5-1.5H176z" fill="#4C6070" p-id="3968"></path><path d="M158 351.9h314.3v218.5H158zM158 637.9h314.3v218.5H158zM548 637.9h314.3v218.5H548z" fill="#FFBD5C" p-id="3969"></path><path d="M464.3 591.2H171.5c-14.6 0-26.5-11.9-26.5-26.5V361.9c0-14.6 11.9-26.5 26.5-26.5h292.8c14.6 0 26.5 11.9 26.5 26.5v202.8c0 14.6-11.9 26.5-26.5 26.5zM171.5 360.3c-0.8 0-1.5 0.7-1.5 1.5v202.8c0 0.8 0.7 1.5 1.5 1.5h292.8c0.8 0 1.5-0.7 1.5-1.5V361.9c0-0.8-0.7-1.5-1.5-1.5H171.5v-0.1zM853.4 591H560.6c-14.6 0-26.5-11.9-26.5-26.5V361.6c0-14.6 11.9-26.5 26.5-26.5h292.8c14.6 0 26.5 11.9 26.5 26.5v202.8c0 14.7-11.9 26.6-26.5 26.6zM560.6 360.1c-0.8 0-1.5 0.7-1.5 1.5v202.8c0 0.8 0.7 1.5 1.5 1.5h292.8c0.8 0 1.5-0.7 1.5-1.5V361.6c0-0.8-0.7-1.5-1.5-1.5H560.6zM468.1 875.7H175.3c-14.6 0-26.5-11.9-26.5-26.5V646.4c0-14.6 11.9-26.5 26.5-26.5h292.8c14.6 0 26.5 11.9 26.5 26.5v202.8c0 14.6-11.9 26.5-26.5 26.5zM175.3 644.8c-0.8 0-1.5 0.7-1.5 1.5v202.8c0 0.8 0.7 1.5 1.5 1.5h292.8c0.8 0 1.5-0.7 1.5-1.5V646.4c0-0.8-0.7-1.5-1.5-1.5H175.3v-0.1zM852.6 875.7H559.8c-14.6 0-26.5-11.9-26.5-26.5V646.4c0-14.6 11.9-26.5 26.5-26.5h292.8c14.6 0 26.5 11.9 26.5 26.5v202.8c0 14.6-11.9 26.5-26.5 26.5zM559.8 644.8c-0.8 0-1.5 0.7-1.5 1.5v202.8c0 0.8 0.7 1.5 1.5 1.5h292.8c0.8 0 1.5-0.7 1.5-1.5V646.4c0-0.8-0.7-1.5-1.5-1.5H559.8v-0.1z" fill="#4C6070" p-id="3970"></path><path d="M382 475.8H253.8c-6.9 0-12.5-5.6-12.5-12.5s5.6-12.5 12.5-12.5H382c6.9 0 12.5 5.6 12.5 12.5s-5.6 12.5-12.5 12.5z" fill="#4C6070" p-id="3971"></path><path d="M317.9 539.8c-6.9 0-12.5-5.6-12.5-12.5V399.2c0-6.9 5.6-12.5 12.5-12.5s12.5 5.6 12.5 12.5v128.1c0 6.9-5.6 12.5-12.5 12.5zM272.6 803.1c-3.2 0-6.4-1.2-8.8-3.7-4.9-4.9-4.9-12.8 0-17.7l90.6-90.6c4.9-4.9 12.8-4.9 17.7 0 4.9 4.9 4.9 12.8 0 17.7l-90.6 90.6c-2.5 2.5-5.7 3.7-8.9 3.7z" fill="#4C6070" p-id="3972"></path><path d="M363.2 803.1c-3.2 0-6.4-1.2-8.8-3.7l-90.6-90.6c-4.9-4.9-4.9-12.8 0-17.7s12.8-4.9 17.7 0l90.6 90.6c4.9 4.9 4.9 12.8 0 17.7-2.5 2.5-5.7 3.7-8.9 3.7zM771.1 475.5H643c-6.9 0-12.5-5.6-12.5-12.5s5.6-12.5 12.5-12.5h128.1c6.9 0 12.5 5.6 12.5 12.5s-5.6 12.5-12.5 12.5zM771.1 763.5H643c-6.9 0-12.5-5.6-12.5-12.5s5.6-12.5 12.5-12.5h128.1c6.9 0 12.5 5.6 12.5 12.5s-5.6 12.5-12.5 12.5z" fill="#4C6070" p-id="3973"></path><path d="M707 704.9m-15.4 0a15.4 15.4 0 1 0 30.8 0 15.4 15.4 0 1 0-30.8 0Z" fill="#4C6070" p-id="3974"></path><path d="M707 795m-15.4 0a15.4 15.4 0 1 0 30.8 0 15.4 15.4 0 1 0-30.8 0Z" fill="#4C6070" p-id="3975"></path></svg>