<?xml version="1.0" standalone="no"?><!DOCTYPE svg PUBLIC "-//W3C//DTD SVG 1.1//EN" "http://www.w3.org/Graphics/SVG/1.1/DTD/svg11.dtd"><svg t="1662558190718" class="icon" viewBox="0 0 1024 1024" version="1.1" xmlns="http://www.w3.org/2000/svg" p-id="3708" xmlns:xlink="http://www.w3.org/1999/xlink" width="200" height="200"><path d="M373.76 834.56H512V555.4176l-184.32-160.768-184.32 160.768V834.56h138.24v-184.32h92.16v184.32z m552.96 92.16h-829.44C71.7824 926.72 51.2 906.1376 51.2 880.64V534.4256c0-13.312 5.7344-26.0096 15.7696-34.7136L235.52 352.768V143.36c0-25.4976 20.5824-46.08 46.08-46.08h645.12c25.4976 0 46.08 20.5824 46.08 46.08v737.28c0 25.4976-20.5824 46.08-46.08 46.08zM696.32 465.92v92.16h92.16v-92.16h-92.16z m0 184.32v92.16h92.16v-92.16h-92.16z m0-368.64v92.16h92.16v-92.16h-92.16z m-184.32 0v92.16h92.16v-92.16h-92.16z" fill="#409EFF" p-id="3709"></path></svg>